PathFileType	4	(x/y/z)	TRC_MarkerData\Passive\Passive_Pref0009.trc
DataRate	CameraRate	NumFrames	NumMarkers	Units	OrigDataRate	OrigDataStartFrame	OrigNumFrames
240	240	6	50	mm	240	33	262
Frame#	Time	R_AC			L_AC			HEAD			STERN			L_IC			R_IC			L_ASIS			R_ASIS			L_GT			R_GT			L_PSIS			R_PSIS			SACRAL			L_LAT_KNEE			L_MED_KNEE			R_LAT_KNEE			R_MED_KNEE			L_LAT_ANK			L_MED_ANK			R_LAT_ANK			R_MED_ANK			L_THIGH_PROX_POST			L_THIGH_PROX_ANT			L_THIGH_DIST_ANT			L_THIGH_DIST_POST			R_THIGH_PROX_POST			R_THIGH_PROX_ANT			R_THIGH_DIST_ANT			R_THIGH_DIST_POST			L_SHANK_PROX_POST			L_SHANK_PROX_ANT			L_SHANK_DIST_ANT			L_SHANK_DIST_POST			R_SHANK_PROX_POST			R_SHANK_PROX_ANT			R_SHANK_DIST_ANT			R_SHANK_DIST_POST			L_HEEL_LAT			L_HEEL_SUP			L_HEEL_MED			R_HEEL_LAT			R_HEEL_SUP			R_HEEL_MED			L_1ST_MET			L_5TH_MET			L_TOE			R_1ST_MET			R_5TH_MET			R_TOE			C7			
		X1	Y1	Z1	X2	Y2	Z2	X3	Y3	Z3	X4	Y4	Z4	X5	Y5	Z5	X6	Y6	Z6	X7	Y7	Z7	X8	Y8	Z8	X9	Y9	Z9	X10	Y10	Z10	X11	Y11	Z11	X12	Y12	Z12	X13	Y13	Z13	X14	Y14	Z14	X15	Y15	Z15	X16	Y16	Z16	X17	Y17	Z17	X18	Y18	Z18	X19	Y19	Z19	X20	Y20	Z20	X21	Y21	Z21	X22	Y22	Z22	X23	Y23	Z23	X24	Y24	Z24	X25	Y25	Z25	X26	Y26	Z26	X27	Y27	Z27	X28	Y28	Z28	X29	Y29	Z29	X30	Y30	Z30	X31	Y31	Z31	X32	Y32	Z32	X33	Y33	Z33	X34	Y34	Z34	X35	Y35	Z35	X36	Y36	Z36	X37	Y37	Z37	X38	Y38	Z38	X39	Y39	Z39	X40	Y40	Z40	X41	Y41	Z41	X42	Y42	Z42	X43	Y43	Z43	X44	Y44	Z44	X45	Y45	Z45	X46	Y46	Z46	X47	Y47	Z47	X48	Y48	Z48	X49	Y49	Z49	X50	Y50	Z50	

33	0.13384	-625.26	1487.1	418.29	-651.55	1484	67.169	-643.17	1768.3	246.55	-597.55	1427.5	243.74	-683.19	1062.6	107.33	-662.01	1074.8	433.12	-619.1	990.74	128.8	-597.97	975.55	401.28	-691.29	905.71	76.264	-688.64	905.95	463.98	-796.04	1044.1	230.92	-788.02	1050.7	322.98	-807.98	1016.3	278.52	-547.15	528.14	128.38	-579.82	518.29	261.7	-802.1	512.17	424.64	-794.69	513.91	290.7	-531.12	108	147.35	-530.56	108.28	220.63	-1114.9	218.92	429.83	-1091.6	217.83	339.29	-647.86	735.72	104.72	-585.75	753	117.38	-560.45	684.79	131.48	-623.1	665.44	118.17	-784.45	714.88	432.66	-717.68	708.08	443.34	-731.45	634.43	434.86	-797.23	641.96	421.65	-554.88	441.13	130.25	-513.71	456.42	157.04	-518.95	397.23	161.74	-574.25	380.81	151.02	-957.97	436.05	427.3	-907.13	391.63	439.46	-961.24	337.31	432.97	-1010.9	384.61	418.73	-608.41	38.307	153.11	-614.69	67.573	185.94	-605.37	38.046	219.36	-1200.3	253.45	399.62	-1173.1	264.47	366.24	-1191.2	243.33	332.87	-397.08	56.927	231.08	-428.18	39.359	126.53	-337.78	66.989	197.34	-1114.4	65.101	348.77	-1138.7	82.374	450.72	-1086.2	31.399	400.82	-715.6	1542.9	246.81
34	0.13803	-619	1487.9	417.16	-644.97	1484.6	66.193	-637.71	1769	245.56	-591.18	1428.3	242.68	-677.58	1063.3	106.68	-655.98	1075.5	432.24	-613.37	991.42	127.9	-591.91	976.27	400.19	-685.82	906.46	75.504	-681.79	906.14	463.02	-790.19	1045	230.35	-782.09	1051.5	322.39	-802.04	1017.2	277.98	-541.78	528.36	127.31	-574.42	519.17	260.67	-790.78	511.03	424.37	-783.27	512.58	290.33	-530.48	108.07	147.17	-529.9	108.49	220.45	-1105.6	221.4	430.87	-1082.7	220.03	340.07	-642.2	736.39	103.73	-580.12	753.66	116.41	-554.87	685.42	130.53	-617.49	666.13	117.18	-775.46	713.54	432.19	-708.57	707.58	442.63	-721.46	633.76	434.31	-787.37	640.45	421.37	-550.48	441.46	129.35	-509.12	456.33	156.06	-515.02	397.22	160.89	-570.52	381.4	150.29	-946.85	436.66	427.25	-896.49	391.75	439.62	-951.17	337.95	433.31	-1000.4	385.75	418.93	-608.32	38.525	153.13	-614.61	67.774	185.92	-605.25	38.249	219.38	-1190.2	258.39	400.87	-1162.6	268.88	367.49	-1181.5	248.41	334.04	-396.94	56.716	231	-428.13	39.195	126.47	-337.63	66.551	197.23	-1109.2	66.679	348.76	-1133	84.856	451	-1082.6	30.691	400.72	-709.32	1543.5	245.7
35	0.14221	-612.8	1488.8	416.07	-638.39	1485.3	65.262	-632.24	1769.7	244.57	-584.84	1429.1	241.67	-671.99	1063.9	106	-650.03	1076.2	431.37	-607.65	992.09	127	-585.91	977.03	399.12	-680.34	907.17	74.735	-675.01	906.41	462.07	-784.36	1045.9	229.74	-776.23	1052.4	321.76	-796.13	1018	277.39	-536.54	528.54	126.26	-569.15	519.99	259.65	-779.35	509.99	424.11	-771.76	511.38	289.96	-529.86	108.16	147.01	-529.25	108.71	220.28	-1096.1	223.87	431.83	-1073.7	222.26	340.79	-636.54	737.03	102.73	-574.51	754.25	115.48	-549.33	685.98	129.61	-611.93	666.77	116.19	-766.42	712.28	431.74	-699.41	707.17	441.93	-711.41	633.17	433.79	-777.44	639.02	421.1	-546.18	441.74	128.47	-504.64	456.21	155.11	-511.18	397.19	160.06	-566.87	381.95	149.58	-935.54	437.28	427.23	-885.66	391.9	439.75	-940.9	338.61	433.62	-989.6	386.89	419.14	-608.23	38.747	153.15	-614.54	67.98	185.91	-605.12	38.455	219.4	-1179.9	263.13	402.08	-1152	273.13	368.7	-1171.6	253.29	335.19	-396.81	56.532	230.94	-428.08	39.069	126.42	-337.48	66.154	197.15	-1103.4	68.325	348.73	-1126.7	87.358	451.26	-1078.4	30.15	400.58	-703.08	1544.2	244.61
36	0.14639	-606.65	1489.6	415.03	-631.81	1486	64.375	-626.76	1770.3	243.57	-578.54	1429.8	240.71	-666.42	1064.6	105.31	-644.16	1077	430.5	-601.94	992.74	126.12	-579.94	977.81	398.09	-674.84	907.85	73.957	-668.3	906.75	461.14	-778.57	1046.7	229.09	-770.43	1053.3	321.1	-790.26	1018.8	276.76	-531.42	528.67	125.25	-564.02	520.76	258.65	-767.84	509.03	423.85	-760.18	510.3	289.58	-529.24	108.26	146.85	-528.6	108.93	220.11	-1086.3	226.3	432.72	-1064.4	224.51	341.44	-630.91	737.65	101.73	-568.94	754.79	114.58	-543.86	686.48	128.74	-606.42	667.36	115.2	-757.33	711.09	431.31	-690.22	706.84	441.26	-701.33	632.68	433.28	-767.46	637.68	420.84	-541.99	442	127.61	-500.29	456.06	154.18	-507.44	397.14	159.26	-563.3	382.47	148.87	-924.08	437.91	427.23	-874.65	392.08	439.87	-930.42	339.3	433.9	-978.66	388.04	419.37	-608.14	38.978	153.17	-614.46	68.191	185.9	-605	38.666	219.42	-1169.5	267.63	403.25	-1141.2	277.19	369.87	-1161.5	257.94	336.3	-396.68	56.368	230.89	-428.02	38.972	126.38	-337.34	65.786	197.08	-1097.1	70.034	348.68	-1119.9	89.86	451.49	-1073.6	29.803	400.41	-696.85	1544.9	243.55
37	0.15057	-600.58	1490.4	414.04	-625.23	1486.6	63.531	-621.26	1771	242.58	-572.28	1430.6	239.81	-660.87	1065.2	104.59	-638.37	1077.7	429.64	-596.23	993.37	125.25	-574.02	978.61	397.09	-669.31	908.48	73.17	-661.67	907.15	460.21	-772.8	1047.5	228.4	-764.69	1054.1	320.39	-784.41	1019.6	276.08	-526.45	528.77	124.27	-559.03	521.47	257.68	-756.24	508.17	423.59	-748.56	509.35	289.18	-528.64	108.36	146.71	-527.97	109.16	219.96	-1076.4	228.71	433.51	-1054.8	226.78	342.01	-625.31	738.22	100.75	-563.4	755.26	113.72	-538.44	686.91	127.91	-600.97	667.9	114.24	-748.21	709.99	430.89	-681	706.6	440.62	-691.21	632.29	432.78	-757.43	636.43	420.59	-537.91	442.22	126.78	-496.05	455.89	153.29	-503.81	397.06	158.48	-559.83	382.96	148.19	-912.47	438.57	427.25	-863.48	392.29	439.96	-919.76	340.01	434.14	-967.55	389.2	419.6	-608.05	39.217	153.19	-614.37	68.41	185.9	-604.87	38.883	219.44	-1158.9	271.87	404.36	-1130.4	281.04	370.96	-1151.3	262.33	337.36	-396.55	56.215	230.85	-427.97	38.897	126.35	-337.2	65.437	197.03	-1090.2	71.801	348.61	-1112.6	92.342	451.7	-1068.1	29.674	400.21	-690.66	1545.5	242.52
38	0.15476	-594.57	1491.2	413.1	-618.65	1487.3	62.729	-615.74	1771.7	241.59	-566.07	1431.3	238.97	-655.33	1065.8	103.86	-632.66	1078.5	428.78	-590.53	993.97	124.38	-568.13	979.44	396.13	-663.76	909.08	72.374	-655.11	907.62	459.3	-767.06	1048.3	227.67	-759.01	1054.9	319.65	-778.59	1020.4	275.36	-521.62	528.83	123.33	-554.2	522.11	256.74	-744.57	507.42	423.32	-736.91	508.54	288.78	-528.04	108.47	146.57	-527.34	109.39	219.82	-1066.2	231.07	434.2	-1045.1	229.05	342.5	-619.74	738.77	99.771	-557.89	755.67	112.89	-533.1	687.28	127.12	-595.58	668.39	113.29	-739.06	708.98	430.5	-671.77	706.45	440	-681.06	632.01	432.3	-747.37	635.29	420.34	-533.95	442.4	125.98	-491.94	455.7	152.45	-500.28	396.97	157.75	-556.44	383.42	147.54	-900.74	439.24	427.28	-852.16	392.53	440.03	-908.94	340.74	434.34	-956.3	390.37	419.84	-607.94	39.465	153.21	-614.28	68.638	185.91	-604.75	39.108	219.47	-1148.2	275.82	405.4	-1119.5	284.66	371.97	-1141	266.42	338.36	-396.42	56.07	230.83	-427.91	38.839	126.33	-337.05	65.1	196.99	-1082.8	73.616	348.53	-1104.6	94.784	451.88	-1061.9	29.776	399.99	-684.5	1546.2	241.52
